<svg xmlns="http://www.w3.org/2000/svg" viewBox="0 0 100 100">
  <defs>
    <linearGradient id="g" x1="0%" y1="100%" x2="100%" y2="0%">
      <stop offset="0%" stop-color="#004433"/>
      <stop offset="100%" stop-color="#6ffbbe" stop-opacity="0.9"/>
    </linearGradient>
  </defs>
  <!-- Background -->
  <rect x="2" y="2" width="96" height="96" rx="22" fill="url(#g)"/>
  <!-- Stair bars -->
  <rect x="12" y="70" width="18" height="18" rx="3" fill="rgba(255,255,255,0.25)"/>
  <rect x="32" y="55" width="18" height="33" rx="3" fill="rgba(255,255,255,0.35)"/>
  <rect x="52" y="40" width="18" height="48" rx="3" fill="rgba(255,255,255,0.45)"/>
  <rect x="72" y="25" width="18" height="63" rx="3" fill="rgba(255,255,255,0.55)"/>
  <!-- Arc -->
  <path d="M 12 72 Q 45 30 90 28" stroke="rgba(255,255,255,0.5)" stroke-width="3" stroke-linecap="round" fill="none"/>
  <!-- Figure head -->
  <circle cx="46" cy="22" r="6" fill="white" opacity="0.95"/>
  <!-- Body -->
  <path d="M 46 28 L 44 48 L 50 48 L 48 28 Z" fill="white" opacity="0.9"/>
  <!-- Legs -->
  <path d="M 44 48 L 38 62 L 43 63 L 48 50" fill="white" opacity="0.75"/>
  <path d="M 50 48 L 52 58 L 57 57 L 54 47" fill="white" opacity="0.9"/>
  <!-- Arms -->
  <path d="M 44 32 L 34 44" stroke="white" stroke-width="3.5" stroke-linecap="round" opacity="0.9"/>
  <path d="M 48 32 L 58 26" stroke="white" stroke-width="3.5" stroke-linecap="round" opacity="0.9"/>
  <!-- Briefcase -->
  <rect x="26" y="44" width="12" height="9" rx="2" fill="white" opacity="0.88"/>
  <rect x="29" y="42" width="6" height="3" rx="1.5" fill="white" opacity="0.7"/>
</svg>
